<?xml version="1.0" encoding="utf-8"?>
<!-- Generator: Adobe Illustrator 28.3.0, SVG Export Plug-In . SVG Version: 6.00 Build 0)  -->
<svg version="1.1" id="Layer_1" xmlns="http://www.w3.org/2000/svg" xmlns:xlink="http://www.w3.org/1999/xlink" x="0px" y="0px"
	 viewBox="0 0 396 144" style="enable-background:new 0 0 396 144;" xml:space="preserve">
	
  <style type="text/css">
  .st0{fill:#FEFBF6;}
  .st1{fill:#181818;}
  @keyframes moveHorizontal {
      0% { transform: translateX(0); }
      50% { transform: translateX(15px); }
      100% { transform: translateX(0); }
  }
  @keyframes moveVertical {
      0% { transform: translateY(0); }
      50% { transform: translateY(-10px) translateX(3px); }
      100% { transform: translateY(0); }
  }
  @keyframes fadeInOut {
      0%, 100% { opacity: 0; }
      50% { opacity: 1; }
  }
  [class^="move-"] {
      transform-box: fill-box;
      transform-origin: center;
  }
  /* Assigning unique timing and easing for each class */
  .move-1 { animation: moveHorizontal 6s ease-in-out infinite alternate, fadeInOut 8s infinite; }
  .move-2 { animation: moveVertical 5s ease-in infinite alternate, fadeInOut 6s infinite; }
  .move-3 { animation: moveHorizontal 7s ease-out infinite alternate, fadeInOut 10s infinite; }
  .move-4 { animation: moveVertical 4s linear infinite alternate, fadeInOut 5s infinite; }
  .move-5 { animation: moveHorizontal 8s ease-in-out infinite alternate, fadeInOut 6s infinite; }
  .move-6 { animation: moveVertical 9s ease-in infinite alternate, fadeInOut 5s infinite; }
  .move-7 { animation: moveHorizontal 10s ease-out infinite alternate, fadeInOut 6s infinite; }
  .move-8 { animation: moveVertical 11s linear infinite alternate, fadeInOut 3s infinite; }
  .move-9 { animation: moveHorizontal 3.5s ease-in-out infinite alternate, fadeInOut 6s infinite; }
  .move-10 { animation: moveVertical 12s ease-in infinite alternate, fadeInOut 9s infinite; }
</style>
<g>
	<g>
		<path class="st0" d="M117.1,107.8H114v-3.1h3.1V107.8z M110.5,107.8h-3.2v-3.1h3.2V107.8z M46,97.9h3.3v3.1H46V97.9z M42.4,101.1
			h-3.2V98h3.2V101.1z M96.9,107.8h-3.2v-3.1h3.2V107.8z M100.4,104.6h3.2v3.1h-3.2V104.6z M90.1,107.8h-3.2v-3.1h3.2V107.8z
			 M83.3,107.8H80v-3.1h3.2v3.1H83.3z M76.4,107.8h-3.2v-3.1h3.2V107.8z M69.6,107.8h-3.2v-3.1h3.2V107.8z M62.8,107.8h-3.2v-3.1
			h3.2V107.8z M56,107.8h-3.2v-3.1H56V107.8z M49.2,107.8H46v-3.1h3.3L49.2,107.8L49.2,107.8z M52.8,97.9H56v3.1h-3.2V97.9z
			 M59.6,97.9h3.2v3.1h-3.2V97.9z M66.4,97.9h3.2v3.1h-3.2V97.9z M73.2,97.9h3.2v3.1h-3.2V97.9z M80,97.9h3.2v3.1H80V97.9z
			 M86.8,97.9H90v3.1h-3.2V97.9z M93.6,97.9h3.2v3.1h-3.2V97.9z M100.4,97.9h3.2v3.1h-3.2V97.9z M107.2,97.9h3.2v3.1h-3.2V97.9z
			 M110.5,111.3v3.1h-3.2v-3.1H110.5z M103.7,114.4h-3.2v-3.1h3.2V114.4z M96.9,114.4h-3.2v-3.1h3.2V114.4z M90.1,114.4h-3.2v-3.1
			h3.2V114.4z M83.3,114.4H80v-3.1h3.2v3.1H83.3z M76.4,114.4h-3.2v-3.1h3.2V114.4z M69.6,114.4h-3.2v-3.1h3.2V114.4z M62.8,114.4
			h-3.2v-3.1h3.2V114.4z M56,114.4h-3.2v-3.1H56V114.4z M49.2,114.4H46v-3.1h3.3L49.2,114.4L49.2,114.4z M42.4,114.4h-3.2v-3.1h3.2
			V114.4z M39.2,107.8v-3.1h3.2v3.1H39.2z M35.6,107.8h-3.1v-3.1h3.1V107.8z M32.5,97.9h3.1v3.1h-3.1V97.9z M117.1,97.9v3.1H114
			v-3.1H117.1z M117.1,114.4H114v-3.1h3.1V114.4z M32.5,114.4v-3.1h3.1v3.1H32.5z"/>
	</g>
	<rect x="40.5" y="33.8" class="st0" width="68.6" height="52.6"/>
	<path class="st0" d="M370.1,35.8v0.8v75.9v0.1v0.8c0,0.5-0.4,0.9-0.9,0.9h-0.7h-0.2h-40.4h-0.1H327c-0.5,0-0.9-0.4-0.9-0.9v-0.8
		v-0.1V36.6v-0.8v-0.2v-0.7c0-0.5,0.4-0.9,0.9-0.9h0.9h0.1h40.4h0.2h0.7c0.5,0,0.9,0.4,0.9,0.9v0.7v0.2H370.1z"/>
	<g>
		<g>
			<path class="st1" d="M44.8,60.1c0-7.6,1.3-15.3,1.9-18.4c4-0.7,16.1-2.5,28.1-2.5c12.1,0,24.1,1.8,28.1,2.5
				c0.6,3,1.9,10.7,1.9,18.4c0,7.6-1.3,15.3-1.9,18.4c-4,0.7-16.1,2.5-28.1,2.5s-24.1-1.8-28.1-2.5C46.1,75.4,44.8,67.7,44.8,60.1z"
				/>
			<path class="st1" d="M28.9,101.8v14.4c0,1,0.8,1.8,1.8,1.8h88.2c1,0,1.8-0.8,1.8-1.8v-20c0-1-0.8-1.8-1.8-1.8H30.7
				c-1,0-1.8,0.8-1.8,1.8v2c-3.7-0.8-6.5-4.1-6.5-8c0-4.6,3.7-8.2,8.2-8.2h6.2v6.2c0,1,0.8,1.8,1.8,1.8h72.2c1,0,1.8-0.8,1.8-1.8V82
				h8.2c4.5,0,8.2,3.7,8.2,8.2v4.5c-2.9,0.8-5,3.4-5,6.6v10c0,3.8,3.1,6.8,6.8,6.8c3.7,0,6.8-3,6.8-6.8v-10c0-3.1-2.1-5.8-5-6.6
				v-4.5c0-6.5-5.3-11.8-11.8-11.8h-8.2V32c0-1-0.8-1.8-1.8-1.8H38.7c-1,0-1.8,0.8-1.8,1.8v46.3h-6.2c-6.5,0-11.8,5.3-11.8,11.8
				C18.9,96.1,23.2,101,28.9,101.8z M40.5,33.8h68.6v52.6H40.5V33.8z M117.1,107.8H114v-3.1h3.1V107.8z M110.5,107.8h-3.2v-3.1h3.2
				V107.8z M46,97.9h3.3v3.1H46V97.9z M42.4,101.1h-3.2V98h3.2V101.1z M96.9,107.8h-3.2v-3.1h3.2V107.8z M100.4,104.6h3.2v3.1h-3.2
				V104.6z M90.1,107.8h-3.2v-3.1h3.2V107.8z M83.3,107.8H80v-3.1h3.2v3.1H83.3z M76.4,107.8h-3.2v-3.1h3.2V107.8z M69.6,107.8h-3.2
				v-3.1h3.2V107.8z M62.8,107.8h-3.2v-3.1h3.2V107.8z M56,107.8h-3.2v-3.1H56V107.8z M49.2,107.8H46v-3.1h3.3L49.2,107.8
				L49.2,107.8z M52.8,97.9H56v3.1h-3.2V97.9z M59.6,97.9h3.2v3.1h-3.2V97.9z M66.4,97.9h3.2v3.1h-3.2V97.9z M73.2,97.9h3.2v3.1
				h-3.2V97.9z M80,97.9h3.2v3.1H80V97.9z M86.8,97.9H90v3.1h-3.2V97.9z M93.6,97.9h3.2v3.1h-3.2V97.9z M100.4,97.9h3.2v3.1h-3.2
				V97.9z M107.2,97.9h3.2v3.1h-3.2V97.9z M110.5,111.3v3.1h-3.2v-3.1H110.5z M103.7,114.4h-3.2v-3.1h3.2V114.4z M96.9,114.4h-3.2
				v-3.1h3.2V114.4z M90.1,114.4h-3.2v-3.1h3.2V114.4z M83.3,114.4H80v-3.1h3.2v3.1H83.3z M76.4,114.4h-3.2v-3.1h3.2V114.4z
				 M69.6,114.4h-3.2v-3.1h3.2V114.4z M62.8,114.4h-3.2v-3.1h3.2V114.4z M56,114.4h-3.2v-3.1H56V114.4z M49.2,114.4H46v-3.1h3.3
				L49.2,114.4L49.2,114.4z M42.4,114.4h-3.2v-3.1h3.2V114.4z M39.2,107.8v-3.1h3.2v3.1H39.2z M35.6,107.8h-3.1v-3.1h3.1V107.8z
				 M32.5,97.9h3.1v3.1h-3.1V97.9z M117.1,97.9v3.1H114v-3.1H117.1z M117.1,114.4H114v-3.1h3.1V114.4z M32.5,114.4v-3.1h3.1v3.1
				H32.5z"/>
		</g>
		<g>
			<g class="move-1">
				<path class="st1" d="M272,57.6v2.3c0,2.5-1.5,2.6-3.1,2.6s-3.1-0.1-3.1-2.6v-2.3c0-2.5,1.5-2.6,3.1-2.6S272,55.1,272,57.6z
					 M267.7,57.9v1.7c0,1.3,0.2,1.3,1.2,1.3s1.2,0,1.2-1.3v-1.7c0-1.3-0.2-1.3-1.2-1.3C267.9,56.6,267.7,56.6,267.7,57.9z"/>
			</g>
			<g class="move-2">

				<path class="st1" d="M149.9,69.7V72c0,2.5-1.5,2.6-3.1,2.6s-3.1-0.1-3.1-2.6v-2.3c0-2.5,1.5-2.6,3.1-2.6
					C148.3,67,149.9,67.1,149.9,69.7z M145.6,70v1.7c0,1.3,0.2,1.3,1.2,1.3s1.2,0,1.2-1.3V70c0-1.3-0.2-1.3-1.2-1.3
					S145.6,68.7,145.6,70z"/>
			</g>
			<g class="move-7">

				<path class="st1" d="M207.5,70.5h-2v-5.7l-1.9,1.8l-1.1-1.3l2.7-2.2h2.3V70.5z"/>
			</g>
			<g class="move-4">

				<path class="st1" d="M277.7,88h-2v-5.7l-1.9,1.8l-1.1-1.3l2.7-2.2h2.3V88z"/>
			</g>
			<g class="move-5">
				<path class="st1" d="M177.6,50.3v2.3c0,2.5-1.5,2.6-3.1,2.6s-3.1-0.1-3.1-2.6v-2.3c0-2.5,1.5-2.6,3.1-2.6S177.6,47.8,177.6,50.3
					z M173.3,50.6v1.7c0,1.3,0.2,1.3,1.2,1.3s1.2,0,1.2-1.3v-1.7c0-1.3-0.2-1.3-1.2-1.3S173.3,49.3,173.3,50.6z"/>
			</g>
			<g class="move-5">
			
				<path class="st1" d="M183.8,55.2h-2v-5.7l-1.9,1.8l-1.1-1.3l2.7-2.2h2.3V55.2z"/>
			</g>
			<g class="move-7">

				<path class="st1" d="M163.6,91.6v2.3c0,2.5-1.5,2.6-3.1,2.6s-3.1-0.1-3.1-2.6v-2.3c0-2.5,1.5-2.6,3.1-2.6S163.6,89.1,163.6,91.6
					z M159.3,91.9v1.7c0,1.3,0.2,1.3,1.2,1.3s1.2,0,1.2-1.3v-1.7c0-1.3-0.2-1.3-1.2-1.3S159.3,90.7,159.3,91.9z"/>
			</g>
			<g class="move-7">

				<path class="st1" d="M169.7,96.5h-2v-5.7l-1.9,1.8l-1.1-1.3l2.7-2.2h2.3V96.5z"/>
			</g>
			<g class="move-7">

				<path class="st1" d="M155.6,96.5h-2v-5.7l-1.9,1.8l-1.1-1.3l2.7-2.2h2.3V96.5z"/>
			</g>
			<g class="move-10">

				<path class="st1" d="M213.3,87.9v2.3c0,2.5-1.5,2.6-3.1,2.6s-3.1-0.1-3.1-2.6v-2.3c0-2.5,1.5-2.6,3.1-2.6S213.3,85.4,213.3,87.9
					z M209,88.2v1.7c0,1.3,0.2,1.3,1.2,1.3s1.2,0,1.2-1.3v-1.7c0-1.3-0.2-1.3-1.2-1.3C209.2,86.9,209,86.9,209,88.2z"/>
			</g>
			<g class="move-2">
				<path class="st1" d="M224.7,56.5h-2v-5.7l-1.9,1.8l-1.1-1.3l2.7-2.2h2.3V56.5z"/>
			</g>
			<g class="move-4">

				<path class="st1" d="M185.3,80.3h-2v-5.7l-1.9,1.8l-1.1-1.3l2.7-2.2h2.3V80.3z"/>
			</g>
			<g class="move-1">

				<path class="st1" d="M293.7,74.7h-2V69l-1.9,1.8l-1.1-1.3l2.7-2.2h2.3V74.7z"/>
			</g>
			<g class="move-8">

				<path class="st1" d="M308.3,51v2.3c0,2.5-1.5,2.6-3.1,2.6s-3.1-0.1-3.1-2.6V51c0-2.5,1.5-2.6,3.1-2.6
					C306.8,48.3,308.3,48.4,308.3,51z M304,51.3V53c0,1.3,0.2,1.3,1.2,1.3s1.2,0,1.2-1.3v-1.7c0-1.3-0.2-1.3-1.2-1.3
					S304,50,304,51.3z"/>
			</g>
			<g class="move-4">

				<path class="st1" d="M247.7,67.5v2.3c0,2.5-1.5,2.6-3.1,2.6s-3.1-0.1-3.1-2.6v-2.3c0-2.5,1.5-2.6,3.1-2.6S247.7,65,247.7,67.5z
					 M243.4,67.8v1.7c0,1.3,0.2,1.3,1.2,1.3s1.2,0,1.2-1.3v-1.7c0-1.3-0.2-1.3-1.2-1.3C243.6,66.5,243.4,66.5,243.4,67.8z"/>
			</g>
			<g class="move-4">

				<path class="st1" d="M238.7,72.4h-2v-5.7l-1.9,1.8l-1.1-1.3l2.7-2.2h2.3V72.4z"/>
			</g>
			<g class="move-10">

				<path class="st1" d="M146.5,59.9h-2v-5.7l-1.9,1.8l-1.1-1.3l2.7-2.2h2.3V59.9z"/>
			</g>
			<g class="move-8">

				<path class="st1" d="M304.9,89.4v2.3c0,2.5-1.5,2.6-3.1,2.6s-3.1-0.1-3.1-2.6v-2.3c0-2.5,1.5-2.6,3.1-2.6S304.9,86.9,304.9,89.4
					z M300.6,89.7v1.7c0,1.3,0.2,1.3,1.2,1.3s1.2,0,1.2-1.3v-1.7c0-1.3-0.2-1.3-1.2-1.3C300.9,88.4,300.6,88.4,300.6,89.7z"/>
			</g>
			<g class="move-8">

				<path class="st1" d="M296,94.3h-2v-5.7l-1.9,1.8l-1.1-1.3l2.7-2.2h2.3V94.3z"/>
			</g>
		</g>
		<g>
			<path class="st1" d="M334.4,48.7c2.5,0,4.6-2.1,4.6-4.6s-2.1-4.6-4.6-4.6s-4.6,2.1-4.6,4.6C329.8,46.6,331.8,48.7,334.4,48.7z"/>
			<circle class="st1" cx="348.1" cy="44.1" r="4.6"/>
			<path class="st1" d="M361.9,39.5c-2.5,0-4.6,2.1-4.6,4.6s2.1,4.6,4.6,4.6s4.6-2.1,4.6-4.6C366.5,41.5,364.4,39.5,361.9,39.5z"/>
			<path class="st1" d="M334.4,61.5c2.5,0,4.6-2.1,4.6-4.6s-2.1-4.6-4.6-4.6s-4.6,2.1-4.6,4.6C329.8,59.5,331.8,61.5,334.4,61.5z"/>
			<circle class="st1" cx="348.1" cy="56.9" r="4.6"/>
			<path class="st1" d="M361.9,52.3c-2.5,0-4.6,2.1-4.6,4.6s2.1,4.6,4.6,4.6s4.6-2.1,4.6-4.6C366.5,54.4,364.4,52.3,361.9,52.3z"/>
			<path class="st1" d="M336.4,98.2c-3.4,0-6.1,2.7-6.1,6.1s2.7,6.1,6.1,6.1s6.1-2.7,6.1-6.1C342.5,100.9,339.8,98.2,336.4,98.2z"/>
			<rect x="318.8" y="84.3" class="st1" width="1.8" height="9.2"/>
			<rect x="318.8" y="73.2" class="st1" width="1.8" height="9.2"/>
			<rect x="375.7" y="84.3" class="st1" width="1.8" height="9.2"/>
			<rect x="375.7" y="73.2" class="st1" width="1.8" height="9.2"/>
			<rect x="337.1" y="26.6" class="st1" width="22" height="1.8"/>
			<path class="st1" d="M331.6,68c0,1.5,1.2,2.7,2.7,2.7s2.7-1.2,2.7-2.7s-1.2-2.7-2.7-2.7C332.9,65.3,331.6,66.5,331.6,68z"/>
			<path class="st1" d="M361.9,70.7c1.5,0,2.7-1.2,2.7-2.7s-1.2-2.7-2.7-2.7s-2.7,1.2-2.7,2.7C359.2,69.5,360.4,70.7,361.9,70.7z"/>
			<path class="st1" d="M348.1,70.7c1.5,0,2.7-1.2,2.7-2.7s-1.2-2.7-2.7-2.7s-2.7,1.2-2.7,2.7S346.6,70.7,348.1,70.7z"/>
			<path class="st1" d="M348.1,97.7c-1.5,0-2.7,1.2-2.7,2.7s1.2,2.7,2.7,2.7s2.7-1.2,2.7-2.7C350.8,99,349.6,97.7,348.1,97.7z"/>
			<path class="st1" d="M369.2,30.3h-0.7h-0.2h-40.4h-0.1H327c-2.5,0-4.6,2.1-4.6,4.6v0.7v0.2v0.8v75.9v0.1v0.8
				c0,2.5,2.1,4.6,4.6,4.6h0.8h0.1h40.4h0.2h0.7c2.5,0,4.6-2.1,4.6-4.6v-0.8v-0.1V36.6v-0.8v-0.2v-0.7
				C373.8,32.4,371.8,30.3,369.2,30.3z M370.1,35.8v0.8v75.9v0.1v0.8c0,0.5-0.4,0.9-0.9,0.9h-0.7h-0.2h-40.4h-0.1H327
				c-0.5,0-0.9-0.4-0.9-0.9v-0.8v-0.1V36.6v-0.8v-0.2v-0.7c0-0.5,0.4-0.9,0.9-0.9h0.9h0.1h40.4h0.2h0.7c0.5,0,0.9,0.4,0.9,0.9v0.7
				v0.2H370.1z"/>
			<path class="st1" d="M359.8,98.2c-3.4,0-6.1,2.7-6.1,6.1s2.7,6.1,6.1,6.1s6.1-2.7,6.1-6.1C365.8,100.9,363.1,98.2,359.8,98.2z"/>
		</g>
	</g>
	<path class="st0" d="M130.9,97.9c1.8,0,3.2,1.4,3.2,3.2v10c0,1.8-1.4,3.2-3.2,3.2s-3.2-1.4-3.2-3.2v-10
		C127.7,99.4,129.2,97.9,130.9,97.9z"/>
</g>
</svg>
